<svg xmlns="http://www.w3.org/2000/svg" xmlns:xlink="http://www.w3.org/1999/xlink" version="1.1" enable-background="new 0 0 1000 1000" xml:space="preserve" width="1000" height="1000" style=""><rect id="backgroundrect" width="100%" height="100%" x="0" y="0" fill="none" stroke="none"/>
<metadata> Svg Vector Icons : http://www.onlinewebfonts.com/icon </metadata>

<g class="currentLayer" style=""><title>Layer 1</title><g id="svg_1" class="selected" fill="#ffffff" fill-opacity="1" stroke="none" stroke-width="15"><g transform="translate(0,511) scale(0.10000000149011612,-0.10000000149011612) " id="svg_2" fill="#ffffff" fill-opacity="1" stroke="none" stroke-opacity="1" stroke-width="15"><path d="M4499,4988.4c-1273.5-127.1-2481.1-780.9-3305.1-1791C140.6,1908-174.9,178.3,347.2-1419.8c483.5-1480,1641.2-2637.7,3121.2-3121.2c1021.5-333.7,2033.9-335.9,3050.8-2.3c1116.8,365.4,2033.9,1091.8,2667.2,2111.1c535.7,864.9,792.2,1981.7,692.3,2998.6c-127.1,1268.9-751.3,2474.3-1697.9,3268.8C7145.7,4706.9,5822.3,5120,4499,4988.4z M4816.7,3510.6V2396.1l-288.3,13.6c-422.2,22.7-1128.2,113.5-1173.6,154.4c-43.1,38.6,197.5,687.8,388.2,1041.9c190.7,356.4,463.1,692.3,687.8,846.7c90.8,63.6,324.6,172.5,370,174.8C4809.9,4627.4,4816.7,4125.8,4816.7,3510.6z M5425.1,4532.1c247.4-118,542.5-426.8,760.4-799c208.8-358.7,526.6-1180.4,469.9-1216.7c-15.9-9.1-172.5-34.1-347.3-54.5c-311-34.1-422.2-43.1-905.7-70.4l-222.5-11.4v1123.6v1125.9l52.2-13.6C5259.4,4607,5347.9,4570.7,5425.1,4532.1z M3788.5,4339.1c-317.8-395-587.9-935.2-778.6-1557.2L2969,2648l-90.8,13.6c-227,36.3-1071.4,349.6-1216.7,451.7c-43.1,29.5-36.3,40.9,174.8,245.2c538,519.8,1135,876.2,1834.1,1089.6c113.5,34,217.9,63.6,231.5,63.6C3917.8,4513.9,3865.6,4434.5,3788.5,4339.1z M6451.1,4407.2c451.7-149.8,905.7-392.7,1298.4-690.1c192.9-147.5,642.4-567.5,678.7-637.9c22.7-43.1-29.5-72.6-399.5-215.6c-202.1-77.2-740-236.1-898.9-265.6l-79.5-13.6l-118,356.4c-188.4,565.2-456.3,1080.5-753.6,1434.6l-120.3,143l77.2-15.9C6178.7,4493.5,6319.5,4450.4,6451.1,4407.2z M1622.9,2722.9c286-136.2,578.8-247.4,948.9-356.4c154.4-45.4,283.8-86.3,288.3-88.5c4.5-4.5-18.2-138.5-49.9-297.4c-86.3-451.7-170.3-1239.4-172.5-1602.6v-86.3h-131.7H2372l-40.9,93.1c-56.7,124.8-220.2,263.3-358.7,304.2c-145.3,43.1-204.3,43.1-354.1-2.3c-143-40.9-326.9-199.8-370-317.8l-27.2-77.2H839.8H456.1l13.6,154.4c68.1,740,286,1423.3,649.2,2020.3c102.1,165.7,245.2,367.7,261,367.7C1386.8,2834.2,1495.8,2784.2,1622.9,2722.9z M8798.3,2591.3c413.1-640.1,653.8-1352.9,726.4-2145.1l15.9-154.4H8448.7H7359.1V378c-2.3,354.1-84,1137.3-168,1577.6c-36.3,186.1-45.4,272.4-27.2,276.9c13.6,4.5,136.2,36.3,272.4,68.1c306.4,74.9,767.2,231.5,1028.3,351.8c111.2,49.9,206.6,90.8,217.9,90.8C8691.6,2743.4,8743.8,2675.3,8798.3,2591.3z M3604.6,2141.8c415.4-63.6,810.4-102.1,1048.7-102.1h163.4v-168c0-165.7,0-168-68.1-195.2c-154.4-63.6-295.1-292.8-295.1-476.7c0-183.9,140.7-413.1,295.1-476.7l68.1-27.2v-202v-202h-910.3h-910.3l13.6,267.9c25,410.9,79.4,894.4,140.7,1230.3c56.7,306.4,77.2,408.6,86.3,408.6C3239.1,2198.6,3404.8,2173.6,3604.6,2141.8z M6775.7,2137.3c6.8-11.3,36.3-165.7,70.4-347.3c65.8-376.8,118-819.5,138.5-1219l15.9-279.2h-910.3h-910.3v202v202l68.1,27.2c154.4,63.6,295.1,292.8,295.1,476.7c0,183.9-140.7,413.1-295.1,476.7c-65.8,27.2-68.1,31.8-68.1,181.6v154.4l188.4,13.6c583.4,36.3,935.2,65.8,1105.5,93.1C6716.7,2155.4,6764.4,2157.7,6775.7,2137.3z M5123.2,1324.6c36.3-34,56.7-81.7,56.7-124.8c0-43.1-20.4-90.8-56.7-124.8c-111.2-113.5-306.4-34-306.4,124.8c0,93.1,88.5,181.6,181.6,181.6C5041.5,1381.4,5089.1,1361,5123.2,1324.6z M1899.8,325.8c206.6-99.9,161.2-413.1-68.1-456.3c-136.2-25-283.7,99.9-283.7,240.6c0,115.8,122.6,247.4,233.8,249.7C1806.8,359.9,1859,344,1899.8,325.8z M1248.3-148.6c43.1-118,227-276.9,370-317.8c149.8-45.4,208.8-45.4,354.1-2.3c138.5,40.8,301.9,179.3,358.7,304.2l40.9,93.1h133.9h131.7v-84c2.3-367.7,86.3-1153.1,174.8-1607.1c29.5-161.2,56.8-304.2,59-315.5c2.3-11.3-104.4-47.7-236.1-81.7c-404-102.1-733.2-220.2-1194-422.2l-72.6-31.8l-99.9,143c-440.4,619.7-719.6,1400.6-799,2247.3L453.9-71.4h383.6h383.6L1248.3-148.6z M4816.7-974.8v-905.7l-431.3-25c-238.3-15.9-556.1-45.4-710.5-63.6c-420-56.7-429-56.7-449.5,25c-86.3,322.3-183.9,1064.6-215.6,1595.8L2994-71.4h912.5h910.3V-974.8z M6995.9-144c0-152.1-47.7-719.6-79.4-971.5c-38.6-304.2-143-864.9-168-903.4c-13.6-22.7-68.1-20.4-240.6,6.8c-122.6,20.4-231.5,40.9-240.6,47.7c-9.1,4.5-25,43.1-31.8,81.7c-22.7,99.9-224.7,295.1-342.8,331.4c-195.2,56.7-367.7,20.4-517.5-111.2c-54.5-47.7-111.2-118-127.1-156.6c-15.9-36.3-36.3-68.1-47.7-68.1s-20.4,401.8-20.4,908v908h908h908V-144z M9524.7-223.5c-72.7-810.4-329.2-1557.2-746.8-2172.4c-199.7-297.4-154.4-279.2-399.5-163.4c-297.4,138.5-594.7,245.2-953.4,345c-168,47.7-306.4,86.3-308.7,88.5c-2.3,0,25,149.8,61.3,329.1c95.4,481.2,179.3,1255.3,181.6,1641.2v84h1089.6h1091.8L9524.7-223.5z M5849.6-1944.1c113.5-111.2,34-306.5-124.8-306.5c-93.1,0-181.6,88.5-181.6,181.6c0,93.1,88.5,181.6,181.6,181.6C5767.9-1887.4,5815.5-1907.8,5849.6-1944.1z M4816.7-3331.1v-1078.2l-49.9,13.6c-329.2,93.1-685.5,422.2-955.7,883C3615.9-3176.7,3314-2418.6,3364-2386.8c59,36.3,921.6,124.8,1300.7,133.9l152.1,2.3V-3331.1z M5248-2318.7c38.6-95.3,204.3-236.1,313.2-267.9c204.3-61.3,376.8-15.9,538,138.5l113.5,111.2l188.4-25c276.9-38.6,263.3-18.2,170.2-281.5c-158.9-463.1-370-880.8-583.4-1166.8c-213.4-283.8-515.3-517.5-755.9-585.6l-52.2-13.6v1078.2c0,606.1,9.1,1080.5,20.4,1080.5S5232.1-2282.4,5248-2318.7z M3046.2-2675.1c197.5-601.5,460.8-1107.7,769.5-1480l122.6-143l-77.2,15.9c-172.5,36.3-567.5,181.6-803.6,292.8c-460.8,217.9-830.8,476.7-1216.7,846.7c-122.6,120.3-224.7,222.5-224.7,231.5c0,15.9,363.2,170.3,578.8,245.2c161.2,54.5,703.7,206.6,753.6,208.8C2962.2-2454.9,3007.6-2554.8,3046.2-2675.1z M7268.3-2543.4c395-109,1066.9-365.5,1066.9-410.9c0-9.1-88.6-102.1-197.5-206.6c-358.7-345-749.1-615.2-1198.5-828.5c-236.1-111.2-631.1-256.5-803.6-292.8l-74.9-15.9L6206-4121c279.2,345,522.1,803.6,696.9,1314.3c52.2,149.8,99.9,286,104.4,301.9c6.8,15.9,29.5,25,50,18.2C7079.9-2491.2,7175.3-2518.4,7268.3-2543.4z" id="svg_3" fill="#ffffff" fill-opacity="1" stroke="none" stroke-opacity="1" stroke-width="15"/></g></g></g></svg>